<?xml version="1.0" encoding="utf-8"?>
<!-- Generator: Adobe Illustrator 24.0.1, SVG Export Plug-In . SVG Version: 6.00 Build 0)  -->
<svg version="1.1" id="Layer_1" xmlns="http://www.w3.org/2000/svg" xmlns:xlink="http://www.w3.org/1999/xlink" x="0px" y="0px"
	 viewBox="0 0 58.27 73.45" style="enable-background:new 0 0 58.27 73.45;" xml:space="preserve">
<style type="text/css">
	.st0{fill:#39B54A;}
	.st1{fill:#1F1C1D;}
	.st2{fill:#FBB040;}
	.st3{fill:url(#SVGID_1_);}
	.st4{fill:url(#SVGID_2_);}
	.st5{fill:url(#SVGID_3_);}
	.st6{fill:url(#SVGID_4_);}
	.st7{fill:url(#SVGID_5_);}
	.st8{fill:url(#SVGID_6_);}
	.st9{fill:url(#SVGID_7_);}
	.st10{fill:url(#SVGID_8_);}
	.st11{fill:url(#SVGID_9_);}
	.st12{fill:url(#SVGID_10_);}
	.st13{fill:url(#SVGID_11_);}
	.st14{fill:url(#SVGID_12_);}
	.st15{fill:url(#SVGID_13_);}
	.st16{fill:url(#SVGID_14_);}
	.st17{fill:url(#SVGID_15_);}
	.st18{fill:none;}
</style>
<g>
	<g>
		<path class="st0" d="M15.73,27.01c0-1.8,0.43-3.58,1.25-5.18c0.9-1.76,2.4-3.08,3.63-4.6V2.76H7.81v43.12h12.8v-9.53
			C17.65,34.27,15.73,30.86,15.73,27.01z"/>
		<path d="M27.37,36.82c-5.5,0-9.98-4.4-9.98-9.81c0-1.53,0.37-3.06,1.07-4.42c0.52-1.02,1.33-1.91,2.19-2.86
			c0.58-0.65,1.19-1.32,1.73-2.06c3.89-5.32,4.64-11.77,1.99-17.26c-0.06-0.12-0.11-0.23-0.17-0.34c2.21,1.05,4.26,2.19,6.02,3.75
			c1.89,1.67,4.25,3.94,5.79,6.67c1.95,3.46,3.06,6.51,3.3,9.09c0.32,3.4-0.07,6.8-1.1,9.58C36.41,34.02,32.46,36.82,27.37,36.82z"
			/>
		<path class="st1" d="M27.37,36.82c-5.5,0-9.98-4.4-9.98-9.81c0-1.53,0.37-3.06,1.07-4.42c0.52-1.02,1.33-1.91,2.19-2.86
			c0.58-0.65,1.19-1.32,1.73-2.06c3.89-5.32,4.64-11.77,1.99-17.26c-0.06-0.12-0.11-0.23-0.17-0.34c2.21,1.05,4.26,2.19,6.02,3.75
			c1.89,1.67,4.25,3.94,5.79,6.67c1.95,3.46,3.06,6.51,3.3,9.09c0.32,3.4-0.07,6.8-1.1,9.58C36.41,34.02,32.46,36.82,27.37,36.82z"
			/>
		<path class="st0" d="M36.57,2.76v5.47c0.32,0.46,0.62,0.94,0.9,1.43c1.64,2.91,3.19,6.39,3.51,9.75
			c0.32,3.34,0.02,7.05-1.19,10.31c-0.75,2.01-1.84,3.73-3.22,5.1v11.06h12.8V2.76H36.57z"/>
		<g>
			<path class="st2" d="M36.81,16.96c0.41,2.03,0.47,4.13,0.31,6.25c-0.2,2.1-0.55,4.36-1.78,6.29c-1.17,1.95-3.15,3.49-5.31,4.13
				c-2.14,0.72-4.32,0.74-6.34,0.42c2.02-0.2,4-0.69,5.68-1.69c0.85-0.47,1.62-1.07,2.3-1.77c0.7-0.66,1.32-1.42,1.86-2.24
				c1.09-1.63,1.86-3.5,2.4-5.43C36.44,21,36.76,18.98,36.81,16.96z"/>
		</g>
	</g>
	<g>
		<g>
			<g>
				<path class="st1" d="M9.74,63.47H7.06v-5.42H2.77v5.42H0.1V51.33h2.67v4.64h4.29v-4.64h2.67V63.47z"/>
				<path class="st1" d="M12.2,63.47V51.33h2.67v12.14H12.2z"/>
				<path class="st1" d="M25.53,63.35c-1.65,0.18-3.75,0.18-5.63,0.18c-1.62,0-2.66-0.95-2.67-2.45v-7.35
					c0.02-1.5,1.06-2.45,2.67-2.45c1.88,0,3.98,0,5.63,0.18l-0.12,1.99h-4.66c-0.58,0-0.83,0.26-0.83,0.9v1.85h4.84v1.93h-4.84v2.34
					c0,0.65,0.25,0.92,0.83,0.92h4.66L25.53,63.35z"/>
				<path class="st1" d="M31.76,58.07l-2.59,5.4h-2.76l3.17-6.23l-2.92-5.91h2.75l2.34,5.01h0.26l2.34-5.01h2.75l-2.92,5.91
					l3.17,6.23h-2.78l-2.59-5.4H31.76z"/>
				<path class="st1" d="M48.39,57.4c0,4.87-1.37,6.3-5.21,6.3c-3.83,0-5.19-1.42-5.19-6.3c0-4.87,1.35-6.3,5.19-6.3
					C47.02,51.1,48.39,52.53,48.39,57.4z M40.81,57.4c0,3.22,0.55,4.13,2.38,4.13c1.83,0,2.38-0.92,2.38-4.13
					c0-3.22-0.54-4.13-2.38-4.13C41.35,53.27,40.81,54.18,40.81,57.4z"/>
				<path class="st1" d="M53.07,60.39c0,0.63,0.26,0.9,0.95,0.9h4.17l0.12,2.04c-1.62,0.18-3.41,0.19-5.14,0.19
					c-1.95,0-2.78-1.09-2.78-2.59v-9.61h2.67V60.39z"/>
			</g>
		</g>
		<g>
			<g>
				<linearGradient id="SVGID_1_" gradientUnits="userSpaceOnUse" x1="28.744" y1="409.8841" x2="28.744" y2="378.6268">
					<stop  offset="0" style="stop-color:#FFF33B"/>
					<stop  offset="0.0595" style="stop-color:#FFE029"/>
					<stop  offset="0.1303" style="stop-color:#FFD218"/>
					<stop  offset="0.2032" style="stop-color:#FEC90F"/>
					<stop  offset="0.2809" style="stop-color:#FDC70C"/>
					<stop  offset="0.416" style="stop-color:#F3903F"/>
					<stop  offset="0.6127" style="stop-color:#B77E3E"/>
					<stop  offset="0.83" style="stop-color:#ED683C"/>
					<stop  offset="1" style="stop-color:#009444"/>
				</linearGradient>
				<path class="st3" d="M15.41,71.48c0,0.37,0.15,0.53,0.56,0.53h2.44l0.07,1.2c-0.95,0.1-2,0.11-3.01,0.11
					c-1.14,0-1.63-0.64-1.63-1.52v-5.63h1.57V71.48z"/>
				<linearGradient id="SVGID_2_" gradientUnits="userSpaceOnUse" x1="28.744" y1="409.8841" x2="28.744" y2="378.6268">
					<stop  offset="0" style="stop-color:#FFF33B"/>
					<stop  offset="0.0595" style="stop-color:#FFE029"/>
					<stop  offset="0.1303" style="stop-color:#FFD218"/>
					<stop  offset="0.2032" style="stop-color:#FEC90F"/>
					<stop  offset="0.2809" style="stop-color:#FDC70C"/>
					<stop  offset="0.416" style="stop-color:#F3903F"/>
					<stop  offset="0.6127" style="stop-color:#B77E3E"/>
					<stop  offset="0.83" style="stop-color:#ED683C"/>
					<stop  offset="1" style="stop-color:#009444"/>
				</linearGradient>
				<path class="st4" d="M24.88,70.45c0,2.18-0.74,2.97-2.77,2.97c-2.15,0-2.92-0.79-2.92-2.97v-4.28h1.57v4.28
					c0,1.31,0.31,1.7,1.28,1.7c0.95,0,1.27-0.39,1.27-1.7v-4.28h1.58V70.45z"/>
				<linearGradient id="SVGID_3_" gradientUnits="userSpaceOnUse" x1="28.744" y1="409.8841" x2="28.744" y2="378.6268">
					<stop  offset="0" style="stop-color:#FFF33B"/>
					<stop  offset="0.0595" style="stop-color:#FFE029"/>
					<stop  offset="0.1303" style="stop-color:#FFD218"/>
					<stop  offset="0.2032" style="stop-color:#FEC90F"/>
					<stop  offset="0.2809" style="stop-color:#FDC70C"/>
					<stop  offset="0.416" style="stop-color:#F3903F"/>
					<stop  offset="0.6127" style="stop-color:#B77E3E"/>
					<stop  offset="0.83" style="stop-color:#ED683C"/>
					<stop  offset="1" style="stop-color:#009444"/>
				</linearGradient>
				<path class="st5" d="M30.19,69.61c1.09,0.09,1.48,0.76,1.48,1.9c0,1.46-0.71,1.86-2.41,1.86c-1.36,0-2.1-0.01-3-0.08v-7.12
					c0.8-0.07,1.48-0.08,2.67-0.08c1.86,0,2.52,0.39,2.52,1.86c0,1.02-0.36,1.55-1.25,1.63V69.61z M28.85,67.27h-1.06v1.8h1.15
					c0.76,0,1-0.19,1-0.92C29.94,67.44,29.68,67.27,28.85,67.27z M28.99,72.18c0.86,0,1.1-0.18,1.1-0.97c0-0.87-0.26-1.08-1.15-1.09
					h-1.16v2.06H28.99z"/>
				<linearGradient id="SVGID_4_" gradientUnits="userSpaceOnUse" x1="28.744" y1="409.8841" x2="28.744" y2="378.6268">
					<stop  offset="0" style="stop-color:#FFF33B"/>
					<stop  offset="0.0595" style="stop-color:#FFE029"/>
					<stop  offset="0.1303" style="stop-color:#FFD218"/>
					<stop  offset="0.2032" style="stop-color:#FEC90F"/>
					<stop  offset="0.2809" style="stop-color:#FDC70C"/>
					<stop  offset="0.416" style="stop-color:#F3903F"/>
					<stop  offset="0.6127" style="stop-color:#B77E3E"/>
					<stop  offset="0.83" style="stop-color:#ED683C"/>
					<stop  offset="1" style="stop-color:#009444"/>
				</linearGradient>
				<path class="st6" d="M37.63,73.21c-0.97,0.1-2.2,0.1-3.3,0.1c-0.95,0-1.56-0.56-1.57-1.43v-4.31c0.01-0.88,0.62-1.43,1.57-1.43
					c1.1,0,2.33,0,3.3,0.1l-0.07,1.17h-2.73c-0.34,0-0.48,0.16-0.48,0.53v1.08h2.84v1.13h-2.84v1.37c0,0.38,0.14,0.54,0.48,0.54
					h2.73L37.63,73.21z"/>
				<linearGradient id="SVGID_5_" gradientUnits="userSpaceOnUse" x1="28.744" y1="409.8841" x2="28.744" y2="378.6268">
					<stop  offset="0" style="stop-color:#FFF33B"/>
					<stop  offset="0.0595" style="stop-color:#FFE029"/>
					<stop  offset="0.1303" style="stop-color:#FFD218"/>
					<stop  offset="0.2032" style="stop-color:#FEC90F"/>
					<stop  offset="0.2809" style="stop-color:#FDC70C"/>
					<stop  offset="0.416" style="stop-color:#F3903F"/>
					<stop  offset="0.6127" style="stop-color:#B77E3E"/>
					<stop  offset="0.83" style="stop-color:#ED683C"/>
					<stop  offset="1" style="stop-color:#009444"/>
				</linearGradient>
				<path class="st7" d="M43.41,66.31l-0.1,1.07c-0.6-0.02-1.47-0.03-2.23-0.03c-0.76,0-1.03,0.04-1.03,0.65
					c0,0.5,0.21,0.63,0.74,0.8l1.35,0.46c1.13,0.4,1.51,1.05,1.51,2.09c0,1.62-0.7,2.05-2.64,2.05c-0.45,0-1.35-0.03-2.44-0.27
					l0.09-1.13c1.32,0.03,1.9,0.05,2.35,0.05c0.83,0,1.05-0.11,1.05-0.69c0-0.51-0.2-0.63-0.67-0.78l-1.43-0.5
					c-1.08-0.39-1.48-1.03-1.48-2.08c0-1.63,0.75-1.97,2.59-1.97C41.77,66.03,42.62,66.08,43.41,66.31z"/>
			</g>
			<g>
				<path class="st0" d="M15.41,71.48c0,0.37,0.15,0.53,0.56,0.53h2.44l0.07,1.2c-0.95,0.1-2,0.11-3.01,0.11
					c-1.14,0-1.63-0.64-1.63-1.52v-5.63h1.57V71.48z"/>
				<path class="st0" d="M24.88,70.45c0,2.18-0.74,2.97-2.77,2.97c-2.15,0-2.92-0.79-2.92-2.97v-4.28h1.57v4.28
					c0,1.31,0.31,1.7,1.28,1.7c0.95,0,1.27-0.39,1.27-1.7v-4.28h1.58V70.45z"/>
				<path class="st0" d="M30.19,69.61c1.09,0.09,1.48,0.76,1.48,1.9c0,1.46-0.71,1.86-2.41,1.86c-1.36,0-2.1-0.01-3-0.08v-7.12
					c0.8-0.07,1.48-0.08,2.67-0.08c1.86,0,2.52,0.39,2.52,1.86c0,1.02-0.36,1.55-1.25,1.63V69.61z M28.85,67.27h-1.06v1.8h1.15
					c0.76,0,1-0.19,1-0.92C29.94,67.44,29.68,67.27,28.85,67.27z M28.99,72.18c0.86,0,1.1-0.18,1.1-0.97c0-0.87-0.26-1.08-1.15-1.09
					h-1.16v2.06H28.99z"/>
				<path class="st0" d="M37.63,73.21c-0.97,0.1-2.2,0.1-3.3,0.1c-0.95,0-1.56-0.56-1.57-1.43v-4.31c0.01-0.88,0.62-1.43,1.57-1.43
					c1.1,0,2.33,0,3.3,0.1l-0.07,1.17h-2.73c-0.34,0-0.48,0.16-0.48,0.53v1.08h2.84v1.13h-2.84v1.37c0,0.38,0.14,0.54,0.48,0.54
					h2.73L37.63,73.21z"/>
				<path class="st0" d="M43.41,66.31l-0.1,1.07c-0.6-0.02-1.47-0.03-2.23-0.03c-0.76,0-1.03,0.04-1.03,0.65
					c0,0.5,0.21,0.63,0.74,0.8l1.35,0.46c1.13,0.4,1.51,1.05,1.51,2.09c0,1.62-0.7,2.05-2.64,2.05c-0.45,0-1.35-0.03-2.44-0.27
					l0.09-1.13c1.32,0.03,1.9,0.05,2.35,0.05c0.83,0,1.05-0.11,1.05-0.69c0-0.51-0.2-0.63-0.67-0.78l-1.43-0.5
					c-1.08-0.39-1.48-1.03-1.48-2.08c0-1.63,0.75-1.97,2.59-1.97C41.77,66.03,42.62,66.08,43.41,66.31z"/>
			</g>
		</g>
	</g>
</g>
<g>
	<path d="M53.01,5.27V2.41h-1.07V2.03h2.57v0.38h-1.07v2.86H53.01z"/>
	<path d="M54.95,5.27V2.03h0.65l0.77,2.3c0.07,0.21,0.12,0.37,0.15,0.48c0.04-0.12,0.09-0.29,0.17-0.52l0.78-2.26h0.58v3.25h-0.41
		V2.55l-0.94,2.72H56.3l-0.94-2.76v2.76H54.95z"/>
</g>
</svg>
