<svg xmlns="http://www.w3.org/2000/svg" xmlns:xlink="http://www.w3.org/1999/xlink" width="169.642" height="73.764" viewBox="0 0 169.642 73.764">
  <defs>
    <linearGradient id="linear-gradient" x1="3.208" y1="48.091" x2="3.208" y2="43.717" gradientUnits="objectBoundingBox">
      <stop offset="0" stop-color="#fff23a"/>
      <stop offset="0.04" stop-color="#fee62d"/>
      <stop offset="0.117" stop-color="#fed41a"/>
      <stop offset="0.196" stop-color="#fdc90f"/>
      <stop offset="0.281" stop-color="#fdc60b"/>
      <stop offset="0.416" stop-color="#f28f3f"/>
      <stop offset="0.613" stop-color="#b67e3e"/>
      <stop offset="0.83" stop-color="#ed693c"/>
      <stop offset="1" stop-color="#009345"/>
    </linearGradient>
    <linearGradient id="linear-gradient-2" x1="1.674" y1="47.406" x2="1.674" y2="43.095" xlink:href="#linear-gradient"/>
    <linearGradient id="linear-gradient-3" x1="0.459" y1="47.267" x2="0.459" y2="42.97" xlink:href="#linear-gradient"/>
    <linearGradient id="linear-gradient-4" x1="-0.823" y1="47.865" x2="-0.823" y2="43.512" xlink:href="#linear-gradient"/>
    <linearGradient id="linear-gradient-5" x1="-1.888" y1="46.603" x2="-1.888" y2="42.367" xlink:href="#linear-gradient"/>
  </defs>
  <g id="Logo" transform="translate(-5.18 -1.846)">
    <path id="Path_1" data-name="Path 1" d="M17.765,43.57a18.028,18.028,0,0,1,1.987-8.232c1.438-2.8,3.823-4.9,5.772-7.324V5.02H5.18V73.585H25.543V58.426A18.121,18.121,0,0,1,17.765,43.57Z" transform="translate(0 2.026)" fill="#37b34a"/>
    <path id="Path_2" data-name="Path 2" d="M29.1,61.209A15.751,15.751,0,0,1,13.24,45.615a15.319,15.319,0,0,1,1.7-7.021,23,23,0,0,1,3.482-4.561,40.283,40.283,0,0,0,2.763-3.293c6.188-8.459,7.381-18.717,3.16-27.441-.095-.189-.17-.36-.265-.549A40.172,40.172,0,0,1,33.66,8.711c3.009,2.668,6.756,6.264,9.2,10.617,3.1,5.488,4.864,10.352,5.261,14.459a35.419,35.419,0,0,1-1.741,15.235C43.482,56.762,37.18,61.209,29.1,61.209Z" transform="translate(7.193 0)" fill="#231f20"/>
    <path id="Path_3" data-name="Path 3" d="M29.1,61.209A15.751,15.751,0,0,1,13.24,45.615a15.319,15.319,0,0,1,1.7-7.021,23,23,0,0,1,3.482-4.561,40.283,40.283,0,0,0,2.763-3.293c6.188-8.459,7.381-18.717,3.16-27.441-.095-.189-.17-.36-.265-.549A40.172,40.172,0,0,1,33.66,8.711c3.009,2.668,6.756,6.264,9.2,10.617,3.1,5.488,4.864,10.352,5.261,14.459a35.419,35.419,0,0,1-1.741,15.235C43.482,56.762,37.18,61.209,29.1,61.209Z" transform="translate(7.193 0)" fill="#231f20" stroke="#fff" stroke-miterlimit="10" stroke-width="0.84"/>
    <path id="Path_4" data-name="Path 4" d="M29.35,5.02v8.705q.766,1.107,1.419,2.271c2.612,4.637,5.072,10.163,5.583,15.5A37.665,37.665,0,0,1,34.46,47.885a22.436,22.436,0,0,1-5.11,8.1V73.566H49.694V5.02Z" transform="translate(21.571 2.026)" fill="#37b34a"/>
    <g id="Group_1" data-name="Group 1" transform="translate(30.407 29.623)">
      <path id="Path_5" data-name="Path 5" d="M39.4,16.95a36.229,36.229,0,0,1,.492,9.936c-.3,3.35-.871,6.926-2.839,10.011A15.024,15.024,0,0,1,28.6,43.464a21.439,21.439,0,0,1-10.087.681,21.978,21.978,0,0,0,9.046-2.687,16.022,16.022,0,0,0,3.652-2.8A19.8,19.8,0,0,0,34.161,35.1a29.7,29.7,0,0,0,3.8-8.63A39.545,39.545,0,0,0,39.4,16.95Z" transform="translate(-18.51 -16.95)" fill="#faaf40"/>
    </g>
    <g id="Group_6" data-name="Group 6" transform="translate(78.779 38.802)">
      <g id="Group_2" data-name="Group 2">
        <path id="Path_6" data-name="Path 6" d="M59.986,42.022H55.576V33.09h-7.1v8.933H44.07V22h4.409v7.665h7.078V22h4.409V42.022Z" transform="translate(-44.07 -21.621)" fill="#231f20"/>
        <path id="Path_7" data-name="Path 7" d="M54.62,42.022V22h4.41V42.022Z" transform="translate(-34.654 -21.621)" fill="#231f20"/>
        <path id="Path_8" data-name="Path 8" d="M72.712,41.859c-2.725.284-6.188.284-9.292.284-2.668,0-4.391-1.571-4.409-4.031V25.981c.038-2.46,1.741-4.031,4.41-4.031,3.1,0,6.567,0,9.292.284L72.5,25.508H64.82c-.965,0-1.363.435-1.363,1.476v3.047h7.986v3.2H63.457V37.09c0,1.079.416,1.514,1.363,1.514H72.5Z" transform="translate(-30.736 -21.666)" fill="#231f20"/>
        <path id="Path_9" data-name="Path 9" d="M75.839,33.109l-4.258,8.914H67.02l5.223-10.276L67.417,22H71.94L75.8,30.27h.435L80.1,22H84.62l-4.826,9.746,5.223,10.276h-4.58L76.18,33.109Z" transform="translate(-23.587 -21.621)" fill="#231f20"/>
        <path id="Path_10" data-name="Path 10" d="M94.256,32.19c0,8.043-2.271,10.39-8.592,10.39S77.11,40.233,77.11,32.19,79.343,21.8,85.664,21.8,94.256,24.147,94.256,32.19Zm-12.509,0c0,5.318.908,6.813,3.917,6.813,3.028,0,3.917-1.514,3.917-6.813,0-5.318-.889-6.813-3.917-6.813C82.655,25.358,81.747,26.872,81.747,32.19Z" transform="translate(-14.582 -21.8)" fill="#231f20"/>
        <path id="Path_11" data-name="Path 11" d="M92.329,36.932c0,1.041.435,1.476,1.571,1.476h6.87l.208,3.369A82.744,82.744,0,0,1,92.5,42.1c-3.217,0-4.58-1.8-4.58-4.258V22h4.41Z" transform="translate(-4.935 -21.621)" fill="#231f20"/>
      </g>
      <g id="Group_5" data-name="Group 5" transform="translate(0 24.638)">
        <g id="Group_3" data-name="Group 3">
          <path id="Path_12" data-name="Path 12" d="M46.663,43.692c0,.606.246.871.927.871h4.031l.114,1.968a47.408,47.408,0,0,1-4.977.189c-1.892,0-2.687-1.06-2.687-2.5V34.93h2.593v8.762Z" transform="translate(-44.07 -34.72)" fill="url(#linear-gradient)"/>
          <path id="Path_13" data-name="Path 13" d="M58.117,41.989c0,3.6-1.23,4.9-4.58,4.9-3.539,0-4.807-1.306-4.807-4.9V34.93h2.593v7.059c0,2.157.511,2.8,2.12,2.8,1.571,0,2.1-.643,2.1-2.8V34.93h2.612v7.059Z" transform="translate(-39.911 -34.72)" fill="url(#linear-gradient-2)"/>
          <path id="Path_14" data-name="Path 14" d="M61.391,40.67c1.8.151,2.441,1.249,2.441,3.123,0,2.422-1.173,3.066-3.974,3.066-2.252,0-3.463-.019-4.958-.132V34.992c1.325-.114,2.441-.132,4.409-.132,3.066,0,4.145.643,4.145,3.066,0,1.684-.587,2.555-2.063,2.687Zm-2.214-3.861h-1.76V39.78h1.892c1.249,0,1.646-.3,1.646-1.514C60.956,37.074,60.54,36.809,59.177,36.809Zm.227,8.1c1.419,0,1.817-.284,1.817-1.609,0-1.438-.416-1.779-1.892-1.8H57.417v3.406Z" transform="translate(-34.404 -34.782)" fill="url(#linear-gradient-3)"/>
          <path id="Path_15" data-name="Path 15" d="M68.6,46.577c-1.609.17-3.634.17-5.45.17a2.341,2.341,0,0,1-2.593-2.366V37.266A2.341,2.341,0,0,1,63.153,34.9c1.817,0,3.842,0,5.45.17L68.49,37h-4.5c-.568,0-.795.265-.795.871V39.65h4.674v1.874H63.191v2.271c0,.625.246.889.795.889h4.5Z" transform="translate(-29.353 -34.746)" fill="url(#linear-gradient-4)"/>
          <path id="Path_16" data-name="Path 16" d="M73.679,35.275l-.17,1.76c-.984-.038-2.441-.057-3.671-.057-1.268,0-1.7.076-1.7,1.079,0,.814.341,1.041,1.23,1.325l2.233.757A3.223,3.223,0,0,1,74.076,43.6c0,2.668-1.154,3.388-4.353,3.388a19.945,19.945,0,0,1-4.031-.435l.151-1.874c2.176.057,3.123.095,3.88.095,1.363,0,1.741-.189,1.741-1.135,0-.833-.322-1.041-1.1-1.287L68,41.52a3.238,3.238,0,0,1-2.441-3.444c0-2.687,1.249-3.255,4.277-3.255A13.361,13.361,0,0,1,73.679,35.275Z" transform="translate(-24.891 -34.819)" fill="url(#linear-gradient-5)"/>
        </g>
        <g id="Group_4" data-name="Group 4">
          <path id="Path_17" data-name="Path 17" d="M46.663,43.692c0,.606.246.871.927.871h4.031l.114,1.968a47.408,47.408,0,0,1-4.977.189c-1.892,0-2.687-1.06-2.687-2.5V34.93h2.593v8.762Z" transform="translate(-44.07 -34.72)" fill="#37b34a"/>
          <path id="Path_18" data-name="Path 18" d="M58.117,41.989c0,3.6-1.23,4.9-4.58,4.9-3.539,0-4.807-1.306-4.807-4.9V34.93h2.593v7.059c0,2.157.511,2.8,2.12,2.8,1.571,0,2.1-.643,2.1-2.8V34.93h2.612v7.059Z" transform="translate(-39.911 -34.72)" fill="#37b34a"/>
          <path id="Path_19" data-name="Path 19" d="M61.391,40.67c1.8.151,2.441,1.249,2.441,3.123,0,2.422-1.173,3.066-3.974,3.066-2.252,0-3.463-.019-4.958-.132V34.992c1.325-.114,2.441-.132,4.409-.132,3.066,0,4.145.643,4.145,3.066,0,1.684-.587,2.555-2.063,2.687Zm-2.214-3.861h-1.76V39.78h1.892c1.249,0,1.646-.3,1.646-1.514C60.956,37.074,60.54,36.809,59.177,36.809Zm.227,8.1c1.419,0,1.817-.284,1.817-1.609,0-1.438-.416-1.779-1.892-1.8H57.417v3.406Z" transform="translate(-34.404 -34.782)" fill="#37b34a"/>
          <path id="Path_20" data-name="Path 20" d="M68.6,46.577c-1.609.17-3.634.17-5.45.17a2.341,2.341,0,0,1-2.593-2.366V37.266A2.341,2.341,0,0,1,63.153,34.9c1.817,0,3.842,0,5.45.17L68.49,37h-4.5c-.568,0-.795.265-.795.871V39.65h4.674v1.874H63.191v2.271c0,.625.246.889.795.889h4.5Z" transform="translate(-29.353 -34.746)" fill="#37b34a"/>
          <path id="Path_21" data-name="Path 21" d="M73.679,35.275l-.17,1.76c-.984-.038-2.441-.057-3.671-.057-1.268,0-1.7.076-1.7,1.079,0,.814.341,1.041,1.23,1.325l2.233.757A3.223,3.223,0,0,1,74.076,43.6c0,2.668-1.154,3.388-4.353,3.388a19.945,19.945,0,0,1-4.031-.435l.151-1.874c2.176.057,3.123.095,3.88.095,1.363,0,1.741-.189,1.741-1.135,0-.833-.322-1.041-1.1-1.287L68,41.52a3.238,3.238,0,0,1-2.441-3.444c0-2.687,1.249-3.255,4.277-3.255A13.361,13.361,0,0,1,73.679,35.275Z" transform="translate(-24.891 -34.819)" fill="#37b34a"/>
        </g>
      </g>
    </g>
  </g>
</svg>
